<?xml version="1.0" standalone="no"?>
<!DOCTYPE svg PUBLIC "-//W3C//DTD SVG 20010904//EN"
 "http://www.w3.org/TR/2001/REC-SVG-20010904/DTD/svg10.dtd">
<svg version="1.0" xmlns="http://www.w3.org/2000/svg"
 width="1024.000000pt" height="1024.000000pt" viewBox="0 0 1024.000000 1024.000000"
 preserveAspectRatio="xMidYMid meet">
<metadata>
Created by potrace 1.11, written by Peter Selinger 2001-2013
</metadata>
<g transform="translate(0.000000,1024.000000) scale(0.100000,-0.100000)"
fill="#000000" stroke="none">
<path d="M1793 8250 c-71 -14 -140 -60 -183 -120 -24 -34 -1540 -5952 -1540
-6012 0 -53 22 -91 67 -120 l38 -23 4150 0 4150 0 46 21 c54 25 115 77 134
114 8 16 357 1370 776 3010 613 2404 760 2989 754 3018 -9 48 -61 96 -119 111
-54 13 -8204 14 -8273 1z m5022 -941 c456 -16 1140 -63 1296 -87 l46 -7 -231
-267 c-127 -147 -234 -269 -238 -273 -3 -3 -77 1 -165 9 -418 40 -761 56
-1221 56 -486 1 -743 -19 -1002 -76 -349 -77 -581 -214 -685 -407 -16 -28
-191 -494 -391 -1036 l-362 -986 -83 2 c-46 2 -583 10 -1194 19 -610 9 -1117
19 -1126 22 -14 6 38 156 346 987 199 539 369 998 379 1019 30 70 129 209 201
282 462 468 1471 712 3105 754 345 9 924 4 1325 -11z m1007 -1055 c543 -13
1020 -24 1059 -24 69 0 71 -1 67 -22 -11 -51 -813 -2169 -848 -2238 -81 -161
-259 -356 -436 -477 -443 -303 -1135 -489 -2114 -567 -647 -53 -1567 -54
-2385 -5 -414 24 -1061 83 -1077 98 -4 3 104 141 240 305 l247 298 60 -5 c33
-4 148 -15 255 -26 679 -69 1350 -79 1790 -25 526 63 859 231 999 504 21 41
220 558 442 1148 l403 1073 155 -6 c86 -3 600 -17 1143 -31z"/>
</g>
</svg>
