<?xml version="1.0" encoding="utf-8"?>
<!-- Generator: Adobe Illustrator 21.0.0, SVG Export Plug-In . SVG Version: 6.00 Build 0)  -->
<svg version="1.1" id="Layer_1" xmlns="http://www.w3.org/2000/svg" xmlns:xlink="http://www.w3.org/1999/xlink" x="0px" y="0px"
	 viewBox="0 0 1175.4 327.8" style="enable-background:new 0 0 1175.4 327.8;" xml:space="preserve">
<style type="text/css">
	.st0{fill:#262626;stroke:#FFFFFF;stroke-width:7;}
	.st1{enable-background:new    ;}
	.st2{clip-path:url(#SVGID_2_);}
	.st3{fill:#FFC425;}
	.st4{fill:#F58426;}
	.st5{fill:#FFFFFF;}
</style>
<path class="st0" d="M423.8,308.3c-1.3,5-7.3,9.1-13.4,9.1H12.5c-6.1,0-10-4.1-8.7-9.1L77.6,19.6c1.3-5,7.3-9.1,13.4-9.1h397.8
	c6.1,0,10,4.1,8.7,9.1L423.8,308.3L423.8,308.3z"/>
<g class="st1">
	<g>
		<defs>
			<polygon id="SVGID_1_" points="16.5,224.3 210.5,-31.8 484.9,103.5 290.8,359.6 			"/>
		</defs>
		<clipPath id="SVGID_2_">
			<use xlink:href="#SVGID_1_"  style="overflow:visible;"/>
		</clipPath>
		<g class="st2">
			<path class="st3" d="M437.7,109.6l-118.9-3l-39.1,104c-9.5,25.4-43.5,31.7-93.6,30.5c-23.5-0.6-44.1-2.4-59.9-4.5l-24.6,29.7
				c22.5,3,58,5.4,86.1,6.2c115,2.9,193.1-11.6,210.8-58.6L437.7,109.6"/>
			<path class="st4" d="M399,61.1c-22.6-2.6-58-4.6-86.1-5.1C198.2,54,121,67.7,105.3,110.3L70.4,205l118.6,2l34.7-94.4
				c8.5-23.1,42.1-29,92-28.1c23.4,0.4,44.1,1.9,59.9,3.7L399,61.1"/>
		</g>
	</g>
</g>
<path class="st5" d="M553.6,109.7c-2.3-3.2-5.4-6.2-8.5-6.2c-4.4,0-6.8,5.1-6.8,11.4c0,7.1,3.7,12.5,9.8,22.5
	c7.1,11.6,10.8,20.7,10.8,33.9c0,13.6-6.3,29.3-18.2,29.3c-5.5,0-11.5-3.4-15.5-10.8l3.8-12.3c2.8,4.2,6,8.6,10.7,8.6
	c4.4,0,8.2-4.8,8.2-15c0-11.9-7.1-19.7-11.3-26.5c-5.1-8.5-9.4-15.1-9.4-29.5c0-14.5,7.1-26.2,16.7-26.2c6,0,10.8,4.5,13.3,9.4
	L553.6,109.7z M586.6,191.4c-2.8,4.5-6.2,9.3-9.6,9.3c-5.9,0-10.7-9.3-10.7-23.4c0-14.7,5.2-23,13.9-28.1l8.9-5.4
	c-0.5-7.1-3.6-11.6-6.8-11.6c-4.3,0-7.3,3.2-9.9,7.9l-3.2-9.7c4.7-7.9,9.2-10.5,14.4-10.5c6.9,0,15.4,4.6,15.4,28.7V180
	c0,6.2,0.4,13.4,1.6,18.8H590c-0.8-2.6-1-7.1-1-11.3L586.6,191.4z M583.4,157.8c-4.9,3.1-7.4,8.9-7.4,17.7c0,6.8,2.1,11.4,4.5,11.4
	c4,0,9.1-10.2,8.4-32.8L583.4,157.8L583.4,157.8z M610,198.8v-66.6h-6v-10.5h6v-8.8c0-20.2,7.4-27.4,13-27.4c2.3,0,5.2,0.6,7.8,3.4
	L629,99c-1.3-0.9-2.8-1.4-4.3-1.4c-1.6,0-4.8,1.9-4.8,11.6v12.5h9v10.5h-9v66.6L610,198.8L610,198.8z M643.4,162.1
	c-0.2,14.5,4.7,25.3,11,25.3c3.7,0,7.6-2.6,10.1-6.2l2.8,10.8c-5.1,6.2-10.4,8.6-14.7,8.6c-11.3,0-19.8-16.5-19.8-41.9
	c0-23.7,8.4-38.9,19.1-38.9c11.7,0,16.6,19.3,15.8,42.3H643.4L643.4,162.1z M658.3,151c0.4-11.7-1.6-19.7-6.6-19.7
	c-5.7,0-8.3,9.4-8.2,19.7H658.3z M687.6,121.7h9.8v10.5h-9.8v37.9c0,12.6,1.9,18,5.2,18c2.2,0,3.5-1.2,4.8-2.6l1.7,10.2
	c-2.9,3.2-6.5,4.9-9.8,4.9c-8.3,0-11.9-8.9-11.9-24.7v-43.8h-5.3v-10.5h5.3v-18.5l10-4.6V121.7z M710.1,120.2
	c3.2,17.7,6.5,35.6,9.7,57.1h0.1c3.4-21.4,6.8-39.3,10.3-57.1l8.5,3.2l-18.5,85.7c-2,9.4-6.7,28.2-16.4,28.2h-4.2v-13.7h2.6
	c4.6,0,8.3-4,12.2-29.6l-14.3-70.2L710.1,120.2L710.1,120.2z M784.8,90.9c21.4,0,28.7,24.8,28.7,50.9c0,35.6-11.1,57.1-29.7,57.1
	h-17.2v-108C766.6,90.9,784.8,90.9,784.8,90.9z M777.2,184.3h6.4c12.1,0,18.6-12.6,18.6-42.7c0-22.4-6.3-36.2-17.4-36.2h-7.7v78.9
	L777.2,184.3z M821,98.6c0-5.9,2.4-11.9,5.8-11.9c3.5,0,6.2,5.9,6.2,11.9c0,6.6-2.3,13-6,13C823.4,111.5,821,105.2,821,98.6z
	 M831.9,121.7v77.1h-10v-77.1C821.9,121.7,831.9,121.7,831.9,121.7z M862.4,136.2c-2.2-3.4-4.6-4.9-6.4-4.9c-2.2,0-4.5,2.6-4.5,7.9
	c0,6.2,3.6,9.7,7.8,16c5.3,8.2,6.9,16.2,6.9,23.3c0,10.8-5.8,22.2-14,22.2c-5.2,0-9-3.7-12.5-8.8l3.2-10.6c2.2,3.7,5.5,7.4,8.2,7.4
	c2.8,0,5.4-3.1,5.4-9.6c0-7.2-3.9-11.3-7.5-16.5c-4.3-6-7.2-11.9-7.2-21.4c0-12.2,5.7-21.3,13.1-21.3c4.1,0,8.2,2.2,10.9,7.1
	L862.4,136.2L862.4,136.2z M885.8,121.7h9.8v10.5h-9.8v37.9c0,12.6,1.9,18,5.2,18c2.2,0,3.5-1.2,4.8-2.6l1.7,10.2
	c-2.9,3.2-6.5,4.9-9.8,4.9c-8.3,0-11.8-8.9-11.8-24.7v-43.8h-5.3v-10.5h5.3v-18.5l10-4.6v23.2H885.8z M913.1,135.3h0.2l2-6
	c1.2-3.2,3.4-9.4,6.5-9.4c2.2,0,4.6,2.5,6.7,6.9l-3.8,14.2c-1.6-1.7-2.7-2.6-4.7-2.6c-3.5,0-6.8,5.7-6.8,22.4v38.1h-10v-77.1h9.9
	L913.1,135.3L913.1,135.3z M932.3,98.6c0-5.9,2.4-11.9,5.8-11.9c3.5,0,6.2,5.9,6.2,11.9c0,6.6-2.3,13-6,13
	C934.7,111.5,932.3,105.2,932.3,98.6z M943.3,121.7v77.1h-10v-77.1C933.3,121.7,943.3,121.7,943.3,121.7z M953.5,85.5h10v46.9h0.1
	c2.6-7.9,7.4-12.5,11.9-12.5c11.8,0,16.6,21.7,16.6,38.7c0,22.1-6.7,42.1-17.4,42.1c-4.7,0-8.5-4.6-11.2-11.4v9.6h-10L953.5,85.5
	L953.5,85.5z M963.5,161.2c0,14,2.7,27.1,9.4,27.1c6.4,0,8.6-16,8.6-29.6c0-13.3-2.8-26.5-8.5-26.5
	C966.8,132.2,963.5,143.4,963.5,161.2z M1024.4,189.2c-3.5,7.2-7.2,11.4-11.9,11.4c-8,0-12.7-9.9-12.7-29.3v-49.7h10v46.7
	c0,10.8,2.3,17.9,7.1,17.9c3.4,0,7.5-6,7.5-20v-44.6h10v77.1h-9.9L1024.4,189.2L1024.4,189.2z M1056.3,121.7h9.8v10.5h-9.8v37.9
	c0,12.6,1.9,18,5.2,18c2.2,0,3.5-1.2,4.8-2.6l1.7,10.2c-2.9,3.2-6.5,4.9-9.8,4.9c-8.3,0-11.8-8.9-11.8-24.7v-43.8h-5.3v-10.5h5.3
	v-18.5l10-4.6L1056.3,121.7L1056.3,121.7z M1072.7,98.6c0-5.9,2.4-11.9,5.8-11.9c3.5,0,6.2,5.9,6.2,11.9c0,6.6-2.3,13-6,13
	C1075.1,111.5,1072.7,105.2,1072.7,98.6z M1083.7,121.7v77.1h-10v-77.1C1073.7,121.7,1083.7,121.7,1083.7,121.7z M1091.7,159.3
	c0-25,9.6-39.5,19.7-39.5s19.7,14.5,19.7,39.5c0,23.9-8,41.3-19.7,41.3C1099.7,200.7,1091.7,183.2,1091.7,159.3z M1120.5,159.3
	c0-12.8-2.2-28.1-9.1-28.1c-6.8,0-9.1,15.3-9.1,28.1c0,13.6,1.9,29.9,9.1,29.9C1118.7,189.2,1120.5,172.9,1120.5,159.3z
	 M1149.1,130.8c3.4-7.4,8.1-10.9,12.8-10.9c8.8,0,13.4,9.9,13.4,29.3v49.7h-10v-47.3c0-10.8-2.3-17.9-7.5-17.9
	c-4.9,0-8.7,6.6-8.7,19.3v46h-10v-77.1h9.9L1149.1,130.8L1149.1,130.8z"/>
<g>
	<path class="st5" d="M894.3,232.6c-2.6-1.7-4.7-2.3-6.6-2.3c-2.3,0-5.2,1.1-5.2,4.1s3.3,4.5,7.4,7.6c4.6,3.5,7.6,6.4,7.6,11.5
		c0,6-5.9,10.1-12.5,10.1c-4.1,0-8.7-1.8-11-4.5l3.2-3.7c2.1,1.9,4.9,3.6,7.7,3.6c3,0,6.1-1.6,6.1-5.1c0-4.2-3.7-5.9-7.1-8.4
		c-4.1-2.9-7.7-5.4-7.7-10.2c0-5.7,5.6-9.2,11.9-9.2c3.5,0,7,1.4,8.8,3.3L894.3,232.6L894.3,232.6z M909.5,245.2
		c-0.1,7.2,5,13.8,12.1,13.8c3.3,0,7.3-1.2,9.8-3.1l1.9,3.5c-3.7,2.7-8.2,4.2-11.9,4.2c-11.2,0-18.6-6.9-18.6-19.5
		c0-12.4,8.9-18.1,17-18.1c10.9,0,14.6,9.8,13.8,19.2H909.5z M927.8,240.9c0-5.6-2.4-10.3-8-10.3c-6.9,0-9.6,5.7-9.8,10.3H927.8z
		 M947.9,231.3l2.6-2.7c1.5-1.5,3.9-2.6,5.4-2.6c1.6,0,3.9,1.1,5.9,3.5l-2.9,4.2c-1.6-0.8-3.2-1.5-4.8-1.5c-3.3,0-6,3.3-6,11.3v19.3
		h-6.4V227h6.3L947.9,231.3L947.9,231.3z M977.3,262.7l-14.8-34.8l6.5-1.7c3.7,9.1,7.3,18.3,10.9,29.1h0.1
		c3.7-10.8,7.5-20,11.3-29.1l5.7,1.3l-15.6,35.3h-4.1L977.3,262.7z M1001.7,215c0-1.8,1.5-3.8,4.1-3.8s4.1,2,4.1,3.8
		c0,1.9-0.9,4.4-4.1,4.4C1002.6,219.4,1001.7,216.9,1001.7,215z M1009,226.8v35.8h-6.4v-35.8H1009z M1047.1,259.8
		c-3.5,2.5-7.7,3.7-10.8,3.7c-17,0-19.1-13.9-19.1-18.9c0-9,5.9-18.7,19.4-18.7c3.7,0,7,0.9,9.6,2.9l-2.2,3.7
		c-2.1-1-4.7-1.9-7.4-1.9c-5.9,0-12.5,3.9-12.5,13.6c0,7.5,3.8,14.5,12.5,14.5c3.1,0,5.9-0.8,8.7-2.6L1047.1,259.8L1047.1,259.8z
		 M1058.3,245.2c-0.1,7.2,5,13.8,12.1,13.8c3.3,0,7.3-1.2,9.8-3.1l1.9,3.5c-3.7,2.7-8.2,4.2-11.9,4.2c-11.2,0-18.6-6.9-18.6-19.5
		c0-12.4,8.9-18.1,17-18.1c10.9,0,14.5,9.8,13.8,19.2H1058.3L1058.3,245.2z M1076.6,240.9c0-5.6-2.4-10.3-8-10.3
		c-6.9,0-9.6,5.7-9.8,10.3H1076.6z M1107.2,232.6c-2.6-1.7-4.7-2.3-6.6-2.3c-2.3,0-5.2,1.1-5.2,4.1s3.3,4.5,7.4,7.6
		c4.6,3.5,7.6,6.4,7.6,11.5c0,6-5.9,10.1-12.5,10.1c-4.1,0-8.7-1.8-11-4.5l3.2-3.7c2.1,1.9,4.9,3.6,7.7,3.6c3,0,6.1-1.6,6.1-5.1
		c0-4.2-3.7-5.9-7.1-8.4c-4.1-2.9-7.7-5.4-7.7-10.2c0-5.7,5.6-9.2,11.9-9.2c3.5,0,7,1.4,8.8,3.3L1107.2,232.6L1107.2,232.6z"/>
</g>
</svg>
